<svg width="486" height="172" viewBox="0 0 486 172" fill="none" xmlns="http://www.w3.org/2000/svg">
<circle cx="86" cy="86" r="85" stroke="black" stroke-width="2"/>
<path d="M66.8066 74.1143H52.1797V120.733H66.8066V74.1143Z" stroke="black" stroke-width="2"/>
<path d="M106.373 73.1036C105.834 73.0362 105.261 73.0025 104.688 72.9688C96.4985 72.632 91.8813 77.4825 90.2636 79.5709C89.8255 80.1435 89.6232 80.4804 89.6232 80.4804V74.2488H75.6367V120.867H89.6232H90.2636C90.2636 116.118 90.2636 111.402 90.2636 106.653C90.2636 104.093 90.2636 101.533 90.2636 98.9729C90.2636 95.8066 90.0277 92.4382 91.6117 89.5414C92.9598 87.1161 95.3864 85.9035 98.1163 85.9035C106.205 85.9035 106.373 93.2129 106.373 93.8866C106.373 93.9203 106.373 93.954 106.373 93.954V121.07H121V90.6529C121 80.2446 115.709 74.1141 106.373 73.1036Z" stroke="black" stroke-width="2"/>
<path d="M59.493 68.0851C64.1836 68.0851 67.9861 64.2848 67.9861 59.5968C67.9861 54.9088 64.1836 51.1084 59.493 51.1084C54.8024 51.1084 51 54.9088 51 59.5968C51 64.2848 54.8024 68.0851 59.493 68.0851Z" stroke="black" stroke-width="2"/>
<path d="M244.38 98V73.8691H248.751V84.9566H249.046L258.46 73.8691H263.798L254.466 84.6974L263.88 98H258.625L251.426 87.6548L248.751 90.8126V98H244.38ZM273.212 98.3535C271.445 98.3535 269.913 97.9647 268.617 97.187C267.321 96.4093 266.316 95.3214 265.601 93.9232C264.894 92.525 264.54 90.8911 264.54 89.0216C264.54 87.1521 264.894 85.5143 265.601 84.1082C266.316 82.7022 267.321 81.6103 268.617 80.8326C269.913 80.055 271.445 79.6662 273.212 79.6662C274.98 79.6662 276.511 80.055 277.808 80.8326C279.104 81.6103 280.105 82.7022 280.812 84.1082C281.527 85.5143 281.884 87.1521 281.884 89.0216C281.884 90.8911 281.527 92.525 280.812 93.9232C280.105 95.3214 279.104 96.4093 277.808 97.187C276.511 97.9647 274.98 98.3535 273.212 98.3535ZM273.236 94.9365C274.194 94.9365 274.995 94.6734 275.64 94.1471C276.284 93.6129 276.763 92.8981 277.077 92.0026C277.399 91.1071 277.56 90.1095 277.56 89.0098C277.56 87.9023 277.399 86.9007 277.077 86.0052C276.763 85.1019 276.284 84.3832 275.64 83.849C274.995 83.3149 274.194 83.0478 273.236 83.0478C272.254 83.0478 271.437 83.3149 270.785 83.849C270.141 84.3832 269.658 85.1019 269.336 86.0052C269.022 86.9007 268.864 87.9023 268.864 89.0098C268.864 90.1095 269.022 91.1071 269.336 92.0026C269.658 92.8981 270.141 93.6129 270.785 94.1471C271.437 94.6734 272.254 94.9365 273.236 94.9365ZM289.77 87.3956V98H285.505V79.9018H289.581V82.9771H289.793C290.21 81.9638 290.874 81.1586 291.785 80.5616C292.704 79.9647 293.839 79.6662 295.19 79.6662C296.439 79.6662 297.527 79.9332 298.454 80.4674C299.388 81.0015 300.111 81.7753 300.622 82.7886C301.14 83.8019 301.395 85.0312 301.388 86.4765V98H297.122V87.1364C297.122 85.9267 296.808 84.9801 296.18 84.2968C295.559 83.6134 294.699 83.2717 293.599 83.2717C292.853 83.2717 292.189 83.4366 291.608 83.7665C291.035 84.0886 290.583 84.556 290.253 85.1687C289.931 85.7814 289.77 86.5237 289.77 87.3956ZM314.761 79.9018V83.201H304.357V79.9018H314.761ZM306.925 75.5658H311.191V92.5564C311.191 93.1298 311.277 93.5697 311.45 93.8761C311.631 94.1746 311.866 94.3788 312.157 94.4888C312.448 94.5987 312.77 94.6537 313.123 94.6537C313.39 94.6537 313.634 94.6341 313.854 94.5948C314.081 94.5555 314.254 94.5202 314.372 94.4888L315.091 97.8233C314.863 97.9018 314.537 97.9882 314.113 98.0825C313.697 98.1767 313.186 98.2317 312.581 98.2474C311.513 98.2789 310.551 98.1178 309.694 97.7643C308.838 97.403 308.159 96.8453 307.656 96.0912C307.161 95.3371 306.918 94.3945 306.925 93.2634V75.5658ZM323.536 98.3653C322.389 98.3653 321.356 98.161 320.437 97.7526C319.526 97.3362 318.803 96.7235 318.269 95.9145C317.743 95.1054 317.48 94.1078 317.48 92.9217C317.48 91.9005 317.668 91.0561 318.045 90.3884C318.422 89.7207 318.937 89.1866 319.589 88.786C320.241 88.3853 320.975 88.0829 321.792 87.8787C322.617 87.6666 323.469 87.5134 324.349 87.4192C325.41 87.3092 326.27 87.211 326.929 87.1246C327.589 87.0303 328.068 86.8889 328.367 86.7004C328.673 86.504 328.827 86.2016 328.827 85.7932V85.7225C328.827 84.8348 328.563 84.1475 328.037 83.6605C327.511 83.1735 326.753 82.93 325.763 82.93C324.718 82.93 323.89 83.1578 323.277 83.6134C322.672 84.069 322.264 84.607 322.051 85.2276L318.069 84.662C318.383 83.5623 318.902 82.6433 319.624 81.9049C320.347 81.1586 321.231 80.6009 322.275 80.2317C323.32 79.8547 324.475 79.6662 325.739 79.6662C326.611 79.6662 327.479 79.7683 328.343 79.9725C329.207 80.1767 329.997 80.5145 330.712 80.9858C331.427 81.4493 332 82.0816 332.432 82.8828C332.872 83.6841 333.092 84.6856 333.092 85.8874V98H328.991V95.5139H328.85C328.591 96.0166 328.226 96.4879 327.754 96.9278C327.291 97.3598 326.706 97.7094 325.999 97.9764C325.3 98.2357 324.479 98.3653 323.536 98.3653ZM324.644 95.2311C325.5 95.2311 326.242 95.0622 326.871 94.7244C327.499 94.3788 327.982 93.9232 328.32 93.3576C328.665 92.7921 328.838 92.1754 328.838 91.5077V89.3751C328.705 89.4851 328.477 89.5872 328.155 89.6814C327.841 89.7757 327.487 89.8582 327.094 89.9289C326.702 89.9996 326.313 90.0624 325.928 90.1174C325.543 90.1724 325.209 90.2195 324.926 90.2588C324.29 90.3452 323.721 90.4866 323.218 90.683C322.715 90.8793 322.319 91.1543 322.028 91.5077C321.737 91.8534 321.592 92.3011 321.592 92.851C321.592 93.6365 321.879 94.2295 322.452 94.6302C323.026 95.0308 323.756 95.2311 324.644 95.2311ZM341.269 92.3208L341.257 87.1717H341.941L348.445 79.9018H353.429L345.428 88.8095H344.545L341.269 92.3208ZM337.381 98V73.8691H341.646V98H337.381ZM348.739 98L342.848 89.7639L345.723 86.7593L353.841 98H348.739ZM365.309 79.9018V83.201H354.904V79.9018H365.309ZM357.473 75.5658H361.738V92.5564C361.738 93.1298 361.825 93.5697 361.998 93.8761C362.178 94.1746 362.414 94.3788 362.705 94.4888C362.995 94.5987 363.317 94.6537 363.671 94.6537C363.938 94.6537 364.181 94.6341 364.401 94.5948C364.629 94.5555 364.802 94.5202 364.92 94.4888L365.639 97.8233C365.411 97.9018 365.085 97.9882 364.661 98.0825C364.244 98.1767 363.734 98.2317 363.129 98.2474C362.061 98.2789 361.098 98.1178 360.242 97.7643C359.386 97.403 358.706 96.8453 358.204 96.0912C357.709 95.3371 357.465 94.3945 357.473 93.2634V75.5658ZM380.411 90.3884V79.9018H384.676V98H380.541V94.7833H380.352C379.944 95.7966 379.272 96.6254 378.337 97.2695C377.41 97.9136 376.267 98.2357 374.909 98.2357C373.722 98.2357 372.674 97.9725 371.763 97.4462C370.859 96.9121 370.152 96.1383 369.642 95.125C369.131 94.1039 368.876 92.8706 368.876 91.4253V79.9018H373.141V90.7654C373.141 91.9123 373.455 92.8235 374.084 93.499C374.712 94.1746 375.537 94.5123 376.558 94.5123C377.187 94.5123 377.795 94.3592 378.384 94.0528C378.974 93.7465 379.457 93.2909 379.834 92.686C380.219 92.0733 380.411 91.3074 380.411 90.3884ZM389.062 79.9018H393.328V99.0369C393.328 100.341 393.08 101.417 392.585 102.265C392.091 103.114 391.376 103.746 390.441 104.162C389.506 104.579 388.371 104.787 387.036 104.787C386.879 104.787 386.733 104.783 386.6 104.775C386.466 104.775 386.321 104.771 386.164 104.763V101.287C386.282 101.295 386.388 101.299 386.482 101.299C386.576 101.307 386.675 101.311 386.777 101.311C387.594 101.311 388.179 101.111 388.532 100.71C388.886 100.317 389.062 99.7399 389.062 98.978V79.9018ZM391.183 77.3332C390.5 77.3332 389.915 77.1093 389.428 76.6616C388.949 76.206 388.709 75.6601 388.709 75.0238C388.709 74.3797 388.949 73.8337 389.428 73.386C389.915 72.9304 390.5 72.7026 391.183 72.7026C391.859 72.7026 392.436 72.9304 392.915 73.386C393.402 73.8337 393.646 74.3797 393.646 75.0238C393.646 75.6601 393.402 76.206 392.915 76.6616C392.436 77.1093 391.859 77.3332 391.183 77.3332ZM406.751 79.9018V83.201H396.347V79.9018H406.751ZM398.916 75.5658H403.181V92.5564C403.181 93.1298 403.267 93.5697 403.44 93.8761C403.621 94.1746 403.857 94.3788 404.147 94.4888C404.438 94.5987 404.76 94.6537 405.113 94.6537C405.38 94.6537 405.624 94.6341 405.844 94.5948C406.072 94.5555 406.245 94.5202 406.362 94.4888L407.081 97.8233C406.853 97.9018 406.527 97.9882 406.103 98.0825C405.687 98.1767 405.176 98.2317 404.571 98.2474C403.503 98.2789 402.541 98.1178 401.685 97.7643C400.828 97.403 400.149 96.8453 399.646 96.0912C399.151 95.3371 398.908 94.3945 398.916 93.2634V75.5658ZM418.136 98.3535C416.322 98.3535 414.755 97.9764 413.435 97.2223C412.123 96.4604 411.114 95.3842 410.407 93.9939C409.7 92.5957 409.346 90.95 409.346 89.057C409.346 87.1953 409.7 85.5614 410.407 84.1554C411.122 82.7414 412.119 81.6417 413.4 80.8562C414.68 80.0628 416.184 79.6662 417.912 79.6662C419.028 79.6662 420.08 79.8468 421.07 80.2082C422.068 80.5616 422.947 81.1115 423.709 81.8577C424.479 82.604 425.084 83.5544 425.524 84.7091C425.964 85.856 426.184 87.2228 426.184 88.8095V90.1174H411.349V87.2424H422.095C422.087 86.4255 421.911 85.6989 421.565 85.0626C421.219 84.4185 420.736 83.9119 420.116 83.5427C419.503 83.1735 418.788 82.9889 417.971 82.9889C417.099 82.9889 416.333 83.201 415.674 83.6251C415.014 84.0415 414.499 84.5913 414.13 85.2747C413.769 85.9503 413.584 86.6926 413.576 87.5016V90.0113C413.576 91.0639 413.769 91.9673 414.154 92.7214C414.539 93.4676 415.077 94.041 415.768 94.4416C416.459 94.8344 417.268 95.0308 418.195 95.0308C418.816 95.0308 419.377 94.9444 419.88 94.7715C420.383 94.5909 420.819 94.3277 421.188 93.9821C421.557 93.6365 421.836 93.2084 422.024 92.6978L426.007 93.1455C425.756 94.1981 425.276 95.1172 424.57 95.9027C423.87 96.6803 422.975 97.2852 421.883 97.7172C420.791 98.1414 419.542 98.3535 418.136 98.3535ZM438.022 98V79.9018H442.099V82.9771H442.311C442.688 81.9402 443.313 81.1311 444.185 80.5499C445.057 79.9607 446.097 79.6662 447.307 79.6662C448.533 79.6662 449.565 79.9647 450.406 80.5616C451.254 81.1508 451.851 81.9559 452.197 82.9771H452.385C452.786 81.9716 453.462 81.1704 454.412 80.5734C455.37 79.9686 456.505 79.6662 457.817 79.6662C459.483 79.6662 460.842 80.1925 461.894 81.245C462.947 82.2976 463.473 83.8333 463.473 85.8521V98H459.196V86.5119C459.196 85.3886 458.897 84.5678 458.3 84.0493C457.703 83.523 456.973 83.2599 456.109 83.2599C455.08 83.2599 454.275 83.5819 453.693 84.2261C453.12 84.8623 452.833 85.691 452.833 86.7122V98H448.65V86.3352C448.65 85.4004 448.368 84.6542 447.802 84.0964C447.244 83.5387 446.514 83.2599 445.61 83.2599C444.998 83.2599 444.44 83.417 443.937 83.7312C443.435 84.0375 443.034 84.4735 442.735 85.0391C442.437 85.5968 442.288 86.2487 442.288 86.995V98H438.022ZM475.812 98.3535C473.998 98.3535 472.431 97.9764 471.111 97.2223C469.799 96.4604 468.79 95.3842 468.083 93.9939C467.376 92.5957 467.023 90.95 467.023 89.057C467.023 87.1953 467.376 85.5614 468.083 84.1554C468.798 82.7414 469.795 81.6417 471.076 80.8562C472.356 80.0628 473.86 79.6662 475.589 79.6662C476.704 79.6662 477.757 79.8468 478.746 80.2082C479.744 80.5616 480.624 81.1115 481.386 81.8577C482.155 82.604 482.76 83.5544 483.2 84.7091C483.64 85.856 483.86 87.2228 483.86 88.8095V90.1174H469.026V87.2424H479.771C479.763 86.4255 479.587 85.6989 479.241 85.0626C478.896 84.4185 478.412 83.9119 477.792 83.5427C477.179 83.1735 476.464 82.9889 475.647 82.9889C474.775 82.9889 474.01 83.201 473.35 83.6251C472.69 84.0415 472.175 84.5913 471.806 85.2747C471.445 85.9503 471.26 86.6926 471.252 87.5016V90.0113C471.252 91.0639 471.445 91.9673 471.83 92.7214C472.215 93.4676 472.753 94.041 473.444 94.4416C474.135 94.8344 474.944 95.0308 475.871 95.0308C476.492 95.0308 477.053 94.9444 477.556 94.7715C478.059 94.5909 478.495 94.3277 478.864 93.9821C479.233 93.6365 479.512 93.2084 479.701 92.6978L483.683 93.1455C483.432 94.1981 482.953 95.1172 482.246 95.9027C481.547 96.6803 480.651 97.2852 479.559 97.7172C478.467 98.1414 477.218 98.3535 475.812 98.3535ZM473.079 72.4787L475.471 75.4951L477.863 72.4787H481.598V72.6437L477.144 77.7338H473.809L469.344 72.6437V72.4787H473.079Z" fill="#141414"/>
</svg>
